# xmcd
#
# Track frame offsets:
#  150
#  18400
#  38570
#  55325
#  82652
#  114092
#  141712
#  165390
#  188185
#  211885
#  230181
#  242486
#  256543
#  269718
#  308140
#  324433
#
# Disc length: 4576 seconds
#
# Revision: 1
# Processed by: cddbd v1.5.2PL0 Copyright (c) Steve Scherf et al.
# Submitted via: Collectorz.com_Music_Collector 6.11
#
DISCID=d111de10
DTITLE=Novo artista - JAZZ FOUR TIMES - JUST FRIENDS
DYEAR=2002
DGENRE=Jazz
TTITLE0=01.4
TTITLE1=02.4
TTITLE2=03.4
TTITLE3=04.4
TTITLE4=05.4
TTITLE5=06.4
TTITLE6=07.4
TTITLE7=08.4
TTITLE8=09.4
TTITLE9=10.4
TTITLE10=11.4
TTITLE11=12.4
TTITLE12=13.4
TTITLE13=14.4
TTITLE14=15.4
TTITLE15=16.4
EXTD=
EXTT0=
EXTT1=
EXTT2=
EXTT3=
EXTT4=
EXTT5=
EXTT6=
EXTT7=
EXTT8=
EXTT9=
EXTT10=
EXTT11=
EXTT12=
EXTT13=
EXTT14=
EXTT15=
PLAYORDER=
